<svg width="571" height="633" viewBox="0 0 571 633" fill="none" xmlns="http://www.w3.org/2000/svg">
<path d="M328.885 12.0125C301.088 -4.00417 266.841 -4.00417 239.044 12.0125L61.7297 114.182C70.9697 128.347 82.4993 142.245 94.5701 148.491C127.35 165.454 163.772 168.467 212.335 135.753C260.897 103.038 294.891 101.826 341.026 128.483C374.949 148.084 498.997 220.369 571 262.351V203.287C571 171.254 553.876 141.654 526.08 125.637L328.885 12.0125Z" fill="#F2154A"/>
<path d="M214.253 186.191C165.95 218.39 123.685 211.637 91.081 196.924C68.8213 185.525 47.6084 163.935 34.3251 138.892C15.7527 155.434 0 183.72 0 208.985V432.649C0 464.177 17.032 493.311 44.6801 509.075L240.82 620.907C268.468 636.671 302.532 636.671 330.18 620.907L349.025 610.162C349.698 609.778 349.698 608.808 349.025 608.425L283.606 571.125C273.314 565.257 269.788 552.261 275.73 542.097C281.672 531.934 294.832 528.451 305.123 534.319L393.088 584.474C393.395 584.649 393.772 584.649 394.079 584.474L449.819 552.693C450.492 552.309 450.492 551.339 449.819 550.955L365.721 503.005C355.429 497.137 351.903 484.141 357.845 473.978C363.787 463.814 376.947 460.332 387.238 466.2L493.882 527.004C494.189 527.18 494.566 527.18 494.873 527.004L526.32 509.075C534.385 504.476 541.547 498.74 547.646 492.139C548.078 491.671 547.958 490.924 547.404 490.608L447.836 433.838C437.544 427.97 434.018 414.973 439.96 404.81C445.902 394.646 459.062 391.164 469.353 397.032L567.313 452.885C567.889 453.214 568.62 452.9 568.769 452.254C570.236 445.896 571 439.326 571 432.649V310.793C499.382 269.473 375.998 198.328 342.256 179.036C296.368 152.8 262.556 153.992 214.253 186.191Z" fill="#5C46E5"/>
</svg>
